<svg style="height: 38px;" xmlns="http://www.w3.org/2000/svg" viewBox="0 0 2861.27 768"><defs><linearGradient id="b" x1="552.61" y1="-494.03" x2="2308.66" y2="1262.03" gradientUnits="userSpaceOnUse"><stop offset="0" stop-color="currentcolor"/><stop offset="1" stop-color="currentcolor"/></linearGradient></defs><path d="M696.06,317.77c-1.92,1.79-17.67,6.81-17.7,10.52,4.19,5.12,11.43-.09,12.81,7.34,2.72,14.64-26.06,69.57-37.46,81.17-.47.48-7.45,6.38-6.41.92,12.56-12.46,22.92-30.05,30.09-46.58,2.79-6.42,10.92-26.6,11.58-32.36,1.09-9.42-13.28-3.98-17.91-10.49l23.66-13.24,5.48-51.53c-.68-.93-18.16,9.7-21.9,6.39,6.16-4.67,22.04-5.94,23.7-14.64,3.68-19.18-3.41-47.44,2.01-67.48l-3.78-26.45c-3.46,28.08-15.86,56.31-29.57,80.83-10.36,18.52-27.02,37-35.2,56.04-14.74,34.32-22.66,115.84-54.06,133.88-20.17,11.59-57.57,15.11-69.93,35.9-2.48,4.17-2.89,10.27-6.49,12.65,6.37-25.71,16.18-56.98,27.78-80.76,24.63-50.5,67.23-74.73,103.65-113.49,28.21-30.02,52.77-81.12,60.13-121.43l-3.62-.87,10.03-11.87c3.88,24.09,3.46,49.44,2.8,73.97-.1,3.88-1.74,7.37-1.88,10.89-.51,12.25-1.1,74.43-7.83,80.7ZM282.9,389.79c-6.39-33.69-4.17-78.38,6.73-110.8l11.9-30.07c-3.66,5.13-8.27,10.76-10.96,16.41-26.71,56.25-48.09,132.97-6.33,186.98,4.13,5.34,12.25,11.62,15.32,15.69,4.03,5.35-1.46,11.39,4.69,10.81,1.13-31.48-15.56-58.46-21.35-89.02ZM462.07,580.65c8.84.19,21.23-4.02,27.46-10.53,9.31-9.74,8.37-22.12,12.98-33.82-4.74-12.66-29.63-26.54-41.88-19.26-2.85,1.7-12.99,18.04-14.93,22.03-6.37,13.15-10.22,29.28-11.87,43.77,4.76-.6,3.07-8.55,3.64-9.13.89-.92,19.62,6.84,24.59,6.95ZM456.5,557.41c-6.52-4.88-5.62-21.64-.32-26.99,12.18-12.3,15.75,38.53.32,26.99ZM484.82,556.29c11.35-8.4,10.13,5.26,3.19,11.36-7.84,6.89-13.21-3.94-3.19-11.36ZM353.53,347.44c11.55,8.21,20,31.79,19.15,45.52-.3,4.76-8.66,12.83-10.93,18.36-4.85,11.79-4.8,20.76-1.85,32.84.65,2.65,1.95,10.01,4.55,10.93.3-7.64-3.64-15.33-3.77-22.81-.44-26.1,28.63-49.11,41.05-70.39,10.1-17.3,17.28-35.93,15.67-56.41,3.26,1.77,5.54,9.31,6.41,12.73,15.4,60.31-65.08,83.87-46.37,150.37,2.27,8.05,8.63,16.27,13.49,23-.08-7.21-3.22-10.33-2.32-18.65,4.08-37.81,37.22-56.92,64.3-78.1l24.68-21.83c-9.09,27.35-32.07,46.21-36.29,75.91-.29,2.01-1.79,9.87,1.61,9.83-1.29-28.69,21.19-47.38,31.77-69.51,3.52-7.36,3.43-17.33,5.63-21.76,1.15-2.31,4.77-2.65,5.81-4.19,23.91-35.44,34.63-73.93,11.25-113.16l-10.66-10.31c41.08,49.99,17.1,103.1-24.59,142.36-20.4,19.21-59.97,41.22-70.67,66.18-1.59,3.71-6.44,26.86-7.84,26.85-3.88-11.02-5.54-21.97-4.53-33.75,4.02-47.03,56.8-64.92,48.76-119.98-2.17-14.86-22.49-48.83-38.76-48.83h-33.76v1.82h26.46c3.51,0,20.06,7.55,22.9,10.45,19.43,19.89,9.64,48.92-2.24,70.43-3.01,5.45-20.15,30.51-24.33,32.24-3.54,1.46-2.55-2.27-3.19-4.01-6.82-18.57-10.49-35.35-28.7-47.07,7.6,19.41,5.91,38.49-1.8,57.51-.45,1.1-4.18,13.61-7.33,10-.7-.8-3.41-18.34-3.63-21.02-1.89-23.41-1.44-52.85,2.37-76.03,1.62-9.87,3.76-20.02,8.55-28.84-7.24.17-9.4,7.68-14.58,10.93,19.29-55.96,88.31-84.23,142.31-60.23-3.03-4.96-12.34-7.36-17.84-8.6-29.79-6.72-68.27.64-92.51,19.61-3.5,2.74-12.18,13.59-14.85,14.12-3.8.75-12.41-3.73-17.12-3.22-1.12-6.49,7.77-4.94,9.11-9.09-6.37-.06-12.21,3.7-16.4,8.2l20.07,7.33c-8.87,15-21.82,31.78-19.18,50.13l11.89-21.87c2.44-.47,1.89.7,1.86,2.75-.13,11-6.66,28.52-7.44,41.87-1.12,19.16.61,46.18,1.92,65.75.33,4.99,3.52,10.69,3.4,14.68-.38,12.87-17.43,27.13-13.93,52.42.29,2.12,2.29,9.95,5.02,10.45-9.8-31.26,11.15-52.5,20.98-78.47,1.44-3.81,5.97-16.13,6.41-19.14,1.25-8.53-.91-19.43,0-28.28ZM328.11,515.35c-11.95,21.99-7.1,56.2,21,61.85,6.04,1.22,11.82-1.82,17.17,3.8-7.15-22.36-13.46-57.23-38.17-65.65ZM328,524.44c8.26-6.73,14.34,25.29,9.09,31.01-12.54,1-12.78-28-9.09-31.01ZM582.4,267.15c-2.17,3.41,8.22,18.49,6.51,20.07-7.71,1.44-16.61-6.75-23.75-4.74-1.8.51-19.71,16.45-21.9,18.91-9.53,10.72-23.76,32.95-30.14,45.99s-9.57,27.46-16.36,40.21c-1.59-4.72-2.11-9.7-3.72-14.51-.67-2-1.96-7.38-4.46-7.37.3,6.32,4.04,11.42,4.97,17.8,2.62,17.93-10.41,49.25-13.58,69.4-1.34,8.52-2.69,17.24-2.34,25.92l13.27-60.6c12.97-38.82,22.52-72.47,47.99-105.29,3.69-4.75,20.61-24.77,24.52-26.57,2.62-1.21,5.17-1.38,7.97-.86l25.77,7.21c.72-1.47-13.66-18.94-11.1-23.72l44.83-38.31-48.48,36.48ZM557.9,508.03l3.63,3.61c-30.03,6.16-38.71,43.7-55.04,66.31-15.23,21.09-33.42,30.73-57.67,39.04-35.64,12.2-49.24,11.64-84.26-2.32-15.36-6.13-36.41-14.92-38.43-33.66-5.28,3.24,2.01,13.31,4.54,16.45,11.35,14.09,58.57,30.18,76.59,31.05,24.2,1.16,68.31-16.2,86.78-31.98,25.83-22.06,29.74-56.31,55.95-77.26l17-9.42-9.1-1.83ZM318,197.87c-11.06,8.86-53.83,45.58-55.22,57.65-.46,4.02,5.92,18.09,4.98,18.93-21.89-4.66-26.7,3.22-30.99,23.72,5.05-3.56,7.51-18.44,12.74-20.98,7.1-3.44,16.24,1.65,23.74.9-1.35-5.53-7.21-15.95-7.13-21.01.1-6.14,16.08-24.01,21.71-28.24,1.45,8.32-1.76,18.59-.83,26.37.21,1.75.07,5.15,2.65,4.64-.39-12.41.84-24.92,3.56-37.04l49.37-41.39c-8.6,3.59-17.31,10.64-24.58,16.46ZM355.73,231.95c4.69-8.14,7.81-22.08,13.28-32.34,3.53-6.62,37.96-57.6,35.6-60.18-12.39,4.36-15.2,15.53-22.52,23.07-23.16,23.84-50.61,43.8-70.5,70.92l.89,2.7,79.37-80.28c-6.77,16.21-18.44,30.08-26.48,45.58-5.86,11.29-9.77,23.36-15.47,34.69,3.63.73,4.39-1.64,5.85-4.17ZM231.27,330.09c-.09-2.22,1.38-6.79-1.81-6.36-2.04,29.75,1.31,58.97,3.61,88.51.38,4.87-.98,24.34,1.92,26.39.76.54,9.3-.48,9.04-3.59l-7.27,1.81c-3.01-35.56-4.01-71.08-5.49-106.76ZM612.13,462.8c2.43-1.73,19.81-13.65,16.91-16.83-19.15,16.35-41.9,27-62.02,41.95,14.96-6.77,31.65-15.58,45.11-25.12ZM262.31,486.12c-.61,3.47,2.4,5.21,4.49,7.35,7.74,7.9,17.76,15.96,26.55,22.75l-.99,4.59c-3.75-.48-13.04-2.16-15.46,1.78l27.36,1.83-41.95-38.3ZM265.95,526.24c19.24,2.89,34.13,11.8,47.41,25.57.8-3.43-1.91-4.34-3.63-6.39-9.06-10.83-22.48-17.56-36.51-19.17l1.85-3.62-9.12,3.61ZM389.08,608.37c-8.98.65-3.1,5.78,1.42,7.75,8.29,3.61,10.97-.48,14.12-7.73-5.13.23-10.41-.39-15.54-.02ZM658.24,209.67l21.89-28.27-36.48,38.3,14.59-10.03ZM621.76,411.32c4.21,5.82,11.59,11.62,18.23,14.61-2.92,6.25-15.78-3.07-10.91,9.08,3.01.78.8-3.16,2.97-3.68,4.16-1,10.65.77,15.25.02l-12.76-11.87,10.92-2.69-23.71-5.48ZM541.35,505.16c-5.56,2.58-14.74,1.26-18.13,8.31l27.31-7.38c-2.5-4.29,2.19-5.56,3.7-9.01-2.2-2-10.52,6.97-12.89,8.07ZM244.07,444.17l-3.65,14.58c14.77-9.37,4.84,3.5,6.23,9.18.58,2.34,10.71,15.98,11.98,14.54-.57-6.03-8.18-9.58-9.1-15.66-.8-5.29,2.33-10.11,1.8-15.35l-7.28,1.81v-9.1ZM940.75,428.24c2.5-4.04,3.75-9.04,3.75-14.98v-158.4c0-5.94-1.37-10.64-4.1-14.09-2.74-3.44-7.2-5.17-13.38-5.17-6.66,0-11.24,2.02-13.73,6.06-2.5,4.05-3.75,9.16-3.75,15.34v158.4c0,5.95,1.43,10.58,4.28,13.91,2.85,3.33,7.25,5,13.2,5,6.66,0,11.24-2.02,13.74-6.07ZM1004.43,538.12c6.66-2.38,12.49-4.76,17.48-7.13,23.78-10.46,43.11-21.64,57.97-33.53,14.86-11.89,26.34-25.21,34.43-39.96,8.08-14.74,13.67-31.75,16.77-51.02,3.09-19.26,4.64-41.38,4.64-66.36v-91.33c0-6.18-1.25-11.29-3.75-15.34-2.5-4.04-7.08-6.06-13.73-6.06s-11.24,2.02-13.74,6.06c-2.5,4.05-3.75,9.16-3.75,15.34v87.76c0,19.03-.95,36.98-2.85,53.87-1.91,16.89-6.6,32.64-14.09,47.27s-19.57,28.13-36.21,40.49c-16.65,12.37-34.73,21.53-54.23,27.47-2.62.71-6.01,1.84-10.17,3.39-4.16,1.55-7.79,3.51-10.88,5.89-3.09,2.38-4.64,5.47-4.64,9.28,0,11.65,6.06,17.48,18.19,17.48,5.71,0,11.89-1.19,18.55-3.57ZM1520.64,397.91c5.71,0,10.64-1.19,14.81-3.57,4.16-2.37,6.24-6.78,6.24-13.2s-2.02-10.88-6.06-13.38c-4.05-2.5-9.04-3.75-14.98-3.75h-266.14c-5.71,0-10.65,1.19-14.8,3.57-4.16,2.38-6.24,6.78-6.24,13.2s2.02,10.88,6.06,13.38c4.04,2.5,9.04,3.75,14.98,3.75h266.14ZM1688.85,528.31c8.68-2.74,17.24-5.94,25.69-9.63,8.44-3.68,15.52-6.83,21.23-9.45,64.21-30.91,109.76-79.2,136.64-144.84,2.85-6.9,5.76-14.63,8.74-23.19,2.97-8.56,5.53-17.3,7.67-26.22,2.14-8.92,3.21-17.06,3.21-24.44,0-9.04-2.85-16.82-8.56-23.37-5.71-6.54-13.32-9.81-22.83-9.81h-225.47c-5.71,0-10.59,1.19-14.63,3.57-4.05,2.38-6.06,6.78-6.06,13.2s2.02,10.83,6.06,13.2c4.04,2.38,8.92,3.57,14.63,3.57h205.49c4.04,0,7.55.84,10.52,2.5,2.97,1.67,4.46,4.88,4.46,9.63,0,2.38-.36,4.94-1.07,7.67-.71,2.74-1.43,5.41-2.14,8.03-11.9,42.81-32.35,79.32-61.36,109.52-29.02,30.21-64.93,51.73-107.74,64.57-3.81,1.19-8.51,2.5-14.09,3.92-5.59,1.43-10.52,3.51-14.8,6.24-4.28,2.74-6.42,6.72-6.42,11.95,0,11.65,5.94,17.48,17.84,17.48,6.66,0,14.33-1.37,23.01-4.1ZM2147.28,541.51c2.26-3.69,3.39-8.27,3.39-13.74v-138.06c2.38-1.9,6.07-4.87,11.06-8.92,4.99-4.04,10.52-8.74,16.59-14.09,6.06-5.35,11.83-10.76,17.3-16.23,5.47-5.47,9.99-10.7,13.56-15.7,3.57-4.99,5.35-9.15,5.35-12.49,0-5.47-1.49-9.33-4.46-11.59-2.98-2.26-6.96-3.39-11.95-3.39-4.52,0-9.04,2.2-13.56,6.6-4.52,4.4-8.09,8.27-10.7,11.59-12.84,15.7-28,30.21-45.49,43.52-17.48,13.32-35.91,25.21-55.3,35.68-19.39,10.47-38.59,19.26-57.62,26.4-3.57,1.43-7.02,3.15-10.35,5.17-3.33,2.02-4.99,5.41-4.99,10.17s1.07,8.62,3.21,11.59c2.14,2.98,5.83,4.46,11.06,4.46,4.04,0,9.63-1.3,16.77-3.92,7.13-2.61,14.92-5.94,23.37-9.99,8.44-4.04,16.88-8.38,25.33-13.02,8.44-4.64,16.11-8.97,23.01-13.02,6.9-4.04,12.25-7.37,16.05-9.99v115.23c0,5.23,1.13,9.75,3.39,13.56,2.26,3.8,6.36,5.71,12.31,5.71s10.4-1.84,12.67-5.53ZM2388.26,530.62c5.71-2.62,11.24-5.65,16.59-9.1,5.35-3.44,9.81-6.36,13.38-8.74,18.55-13.08,33.83-27.65,45.84-43.7,12.01-16.05,20.16-35.5,24.44-58.33,19.74-6.66,39.24-14.63,58.51-23.9,19.26-9.28,36.15-21.64,50.66-37.1,5.47-5.94,10.82-12.42,16.05-19.44,5.23-7.01,9.57-14.45,13.02-22.3,3.44-7.85,5.17-15.93,5.17-24.26,0-9.04-2.98-16.59-8.92-22.65-5.95-6.06-13.44-9.1-22.48-9.1h-246.51c-5.23,0-9.81,1.07-13.74,3.21-3.92,2.14-5.89,6.3-5.89,12.49s1.9,10.11,5.71,12.49c3.8,2.38,8.44,3.57,13.91,3.57h227.96c3.33,0,6.24.66,8.74,1.96,2.5,1.31,3.75,3.87,3.75,7.67,0,6.66-2.56,13.68-7.67,21.05-5.12,7.38-11.72,14.51-19.8,21.41-8.09,6.9-16.83,13.26-26.22,19.09-9.4,5.83-18.43,10.7-27.11,14.63-8.68,3.92-16.12,6.48-22.3,7.67,1.43-14.27,2.14-28.77,2.14-43.52,0-6.18-1.31-11.29-3.92-15.34-2.62-4.04-7.26-6.06-13.91-6.06-5.95,0-10.29,1.73-13.02,5.17-2.74,3.45-4.1,8.03-4.1,13.73s.18,11.9.54,17.84c.36,5.95.54,12.01.54,18.19,0,31.63-6.96,57.92-20.87,78.84-13.91,20.93-35.02,38.05-63.32,51.37-3.81,1.67-8.15,4.1-13.02,7.31-4.88,3.21-7.31,7.31-7.31,12.31,0,11.65,5.83,17.48,17.48,17.48,4.75,0,9.99-1.31,15.7-3.92ZM2761.27,30H100c-38.6,0-70,31.4-70,70v568c0,38.6,31.4,70,70,70h2661.27c38.6,0,70-31.4,70-70V100c0-38.6-31.4-70-70-70M2761.27,0c55.23,0,100,44.77,100,100v568c0,55.23-44.77,100-100,100H100c-55.23,0-100-44.77-100-100V100C0,44.77,44.77,0,100,0h2661.27Z" style="fill:url(#b);"/></svg>